<svg width="142" height="132" viewBox="0 0 142 132" fill="none" xmlns="http://www.w3.org/2000/svg">
<path d="M30.1667 1V17.25M111.833 1V17.25M1 114.75V33.5C1 29.1902 2.84374 25.057 6.12563 22.0095C9.40752 18.962 13.8587 17.25 18.5 17.25H123.5C128.141 17.25 132.592 18.962 135.874 22.0095C139.156 25.057 141 29.1902 141 33.5V114.75M1 114.75C1 119.06 2.84374 123.193 6.12563 126.24C9.40752 129.288 13.8587 131 18.5 131H123.5C128.141 131 132.592 129.288 135.874 126.24C139.156 123.193 141 119.06 141 114.75M1 114.75V60.5833C1 56.2736 2.84374 52.1403 6.12563 49.0928C9.40752 46.0454 13.8587 44.3333 18.5 44.3333H123.5C128.141 44.3333 132.592 46.0454 135.874 49.0928C139.156 52.1403 141 56.2736 141 60.5833V114.75" stroke="white" stroke-width="2" stroke-linecap="round" stroke-linejoin="round"/>
</svg>
