<svg width="122" height="144" viewBox="0 0 122 144" fill="none" xmlns="http://www.w3.org/2000/svg">
<line x1="39.4631" y1="121.564" x2="82.3437" y2="121.564" stroke="white" stroke-width="2"/>
<mask id="path-2-outside-1_47_59" maskUnits="userSpaceOnUse" x="3.83093" y="0.122579" width="114" height="53" fill="black">
<rect fill="white" x="3.83093" y="0.122579" width="114" height="53"/>
<path d="M115.135 50.8447C115.135 44.4464 113.721 38.1108 110.974 32.1995C108.228 26.2883 104.202 20.9172 99.1274 16.3929C94.0525 11.8687 88.0277 8.27984 81.397 5.83133C74.7664 3.38281 67.6597 2.12258 60.4827 2.12258C53.3057 2.12258 46.199 3.38281 39.5684 5.83133C32.9377 8.27984 26.913 11.8687 21.8381 16.393C16.7632 20.9172 12.7376 26.2883 9.99105 32.1995C7.24454 38.1108 5.83093 44.4464 5.83093 50.8447L60.4827 50.8447H115.135Z"/>
</mask>
<path d="M115.135 50.8447C115.135 44.4464 113.721 38.1108 110.974 32.1995C108.228 26.2883 104.202 20.9172 99.1274 16.3929C94.0525 11.8687 88.0277 8.27984 81.397 5.83133C74.7664 3.38281 67.6597 2.12258 60.4827 2.12258C53.3057 2.12258 46.199 3.38281 39.5684 5.83133C32.9377 8.27984 26.913 11.8687 21.8381 16.393C16.7632 20.9172 12.7376 26.2883 9.99105 32.1995C7.24454 38.1108 5.83093 44.4464 5.83093 50.8447L60.4827 50.8447H115.135Z" stroke="white" stroke-width="4" mask="url(#path-2-outside-1_47_59)"/>
<path d="M107.674 50.696C107.674 37.8291 103.643 25.5028 95.5385 16.4045C87.4335 7.3062 76.2666 2 64.8044 2" stroke="white" stroke-width="2"/>
<path d="M111.718 51.0489C111.718 38.4617 105.061 22.8981 96.9565 13.9976" stroke="white" stroke-width="2"/>
<path d="M95.586 50.6498C95.586 44.2515 94.428 37.9159 92.1779 32.0046C89.9279 26.0934 86.63 20.7223 82.4725 16.1981C78.315 11.6738 73.3793 8.08495 67.9473 5.63644C62.5152 3.18792 60.8972 2.12258 55.0176 2.12258" stroke="white" stroke-width="2"/>
<path d="M91.8026 51.0396C91.8026 44.6413 90.6445 38.3057 88.3945 32.3944C86.1445 26.4832 82.8465 21.1121 78.689 16.5878C74.5315 12.0636 69.5959 8.47474 64.1638 6.02622C58.7318 3.57771 57.1137 2.51237 51.2341 2.51237" stroke="white" stroke-width="2"/>
<path d="M5.83093 56.3015V142.442H115.135V56.3015" stroke="white" stroke-width="2"/>
<rect x="1.78638" y="51.8447" width="118.234" height="3.45687" stroke="white" stroke-width="2"/>
<rect x="40.463" y="62.7584" width="40.8806" height="65.0416" stroke="white" stroke-width="2"/>
<line x1="39.463" y1="67.7744" x2="82.3436" y2="67.7744" stroke="white" stroke-width="2"/>
<line x1="39.463" y1="94.669" x2="82.3436" y2="94.669" stroke="white" stroke-width="2"/>
</svg>
