<svg width="117" height="111" viewBox="0 0 117 111" fill="none" xmlns="http://www.w3.org/2000/svg">
<path d="M58.5 25.5655H68.0833M58.5 45.2179H68.0833M20.1667 64.8703H68.0833M20.1667 84.5227H68.0833M87.25 25.5655H108.813C112.78 25.5655 116 28.8671 116 32.9352V94.3489C116 98.2581 114.485 102.007 111.79 104.771C109.094 107.535 105.437 109.088 101.625 109.088M87.25 25.5655V94.3489C87.25 98.2581 88.7645 102.007 91.4603 104.771C94.1562 107.535 97.8125 109.088 101.625 109.088M87.25 25.5655V8.36965C87.25 4.30161 84.03 1 80.0625 1H8.1875C4.22 1 1 4.30161 1 8.36965V94.3489C1 98.2581 2.5145 102.007 5.21034 104.771C7.90618 107.535 11.5625 109.088 15.375 109.088H101.625M20.1667 25.5655H39.3333V45.2179H20.1667V25.5655Z" stroke="black" stroke-width="2" stroke-linecap="round" stroke-linejoin="round"/>
</svg>
