<svg width="122" height="144" viewBox="0 0 122 144" fill="none" xmlns="http://www.w3.org/2000/svg">
<line x1="39.4631" y1="121.564" x2="82.3436" y2="121.564" stroke="black" stroke-width="2"/>
<mask id="path-2-outside-1_8_62" maskUnits="userSpaceOnUse" x="3.83093" y="0.122559" width="114" height="53" fill="black">
<rect fill="white" x="3.83093" y="0.122559" width="114" height="53"/>
<path d="M115.135 50.8446C115.135 44.4464 113.721 38.1107 110.974 32.1995C108.228 26.2883 104.202 20.9172 99.1274 16.3929C94.0525 11.8687 88.0277 8.27982 81.397 5.83131C74.7664 3.38279 67.6597 2.12256 60.4827 2.12256C53.3057 2.12256 46.199 3.38279 39.5684 5.83131C32.9377 8.27982 26.913 11.8687 21.8381 16.3929C16.7632 20.9172 12.7376 26.2883 9.99105 32.1995C7.24454 38.1108 5.83093 44.4464 5.83093 50.8447L60.4827 50.8446H115.135Z"/>
</mask>
<path d="M115.135 50.8446C115.135 44.4464 113.721 38.1107 110.974 32.1995C108.228 26.2883 104.202 20.9172 99.1274 16.3929C94.0525 11.8687 88.0277 8.27982 81.397 5.83131C74.7664 3.38279 67.6597 2.12256 60.4827 2.12256C53.3057 2.12256 46.199 3.38279 39.5684 5.83131C32.9377 8.27982 26.913 11.8687 21.8381 16.3929C16.7632 20.9172 12.7376 26.2883 9.99105 32.1995C7.24454 38.1108 5.83093 44.4464 5.83093 50.8447L60.4827 50.8446H115.135Z" stroke="black" stroke-width="4" mask="url(#path-2-outside-1_8_62)"/>
<path d="M107.674 50.696C107.674 37.8291 103.644 25.5028 95.5386 16.4045C87.4336 7.3062 76.2666 2 64.8045 2" stroke="black" stroke-width="2"/>
<path d="M111.718 51.0489C111.718 38.4617 105.061 22.8981 96.9565 13.9976" stroke="black" stroke-width="2"/>
<path d="M95.586 50.6498C95.586 44.2515 94.428 37.9159 92.1779 32.0046C89.9279 26.0934 86.63 20.7223 82.4725 16.198C78.315 11.6738 73.3793 8.08493 67.9473 5.63642C62.5152 3.1879 60.8972 2.12256 55.0176 2.12256" stroke="black" stroke-width="2"/>
<path d="M91.8026 51.0396C91.8026 44.6413 90.6445 38.3057 88.3945 32.3944C86.1445 26.4832 82.8465 21.1121 78.689 16.5879C74.5315 12.0636 69.5959 8.47476 64.1638 6.02625C58.7318 3.57774 57.1137 2.51239 51.2341 2.51239" stroke="black" stroke-width="2"/>
<path d="M5.83093 56.3015V142.442H115.135V56.3015" stroke="black" stroke-width="2"/>
<rect x="1.78638" y="51.8447" width="118.234" height="3.45687" stroke="black" stroke-width="2"/>
<rect x="40.463" y="62.7584" width="40.8806" height="65.0416" stroke="black" stroke-width="2"/>
<line x1="39.463" y1="67.7744" x2="82.3435" y2="67.7744" stroke="black" stroke-width="2"/>
<line x1="39.463" y1="94.6689" x2="82.3435" y2="94.6689" stroke="black" stroke-width="2"/>
</svg>
