<svg width="160" height="168" viewBox="0 0 160 168" fill="none" xmlns="http://www.w3.org/2000/svg">
<path d="M150.352 27.7742C152.737 35.2859 154.014 42.3671 154.17 47.7274C154.248 50.4146 154.042 52.6098 153.588 54.192C153.124 55.8127 152.479 56.5374 151.87 56.7591C151.26 56.9809 150.337 56.8265 149.046 55.8445C147.785 54.8859 146.373 53.2795 144.905 51.0977C141.978 46.7456 138.961 40.2973 136.576 32.7857C134.192 25.274 132.914 18.1928 132.759 12.8325C132.681 10.1453 132.886 7.9501 133.34 6.3679C133.805 4.74721 134.45 4.02248 135.059 3.80075C135.669 3.57901 136.592 3.73341 137.883 4.71535C139.143 5.67399 140.556 7.28038 142.024 9.46218C144.951 13.8143 147.968 20.2626 150.352 27.7742Z" stroke="black" stroke-width="2"/>
<path d="M145.93 53.4878C147.453 52.9665 148.193 50.0521 147.987 45.3859C147.781 40.7196 146.645 34.6837 144.83 28.6059C143.015 22.5281 140.67 16.9063 138.309 12.9773C135.949 9.04828 133.767 7.13384 132.243 7.65515" stroke="black" stroke-width="2"/>
<path d="M17.7501 39.8292C18.2427 39.6045 18.587 39.0672 18.7073 38.3355C18.8276 37.6038 18.714 36.7376 18.3915 35.9275C18.0691 35.1174 17.5641 34.4297 16.9878 34.0158C16.4115 33.6019 15.8109 33.4956 15.3184 33.7203" stroke="black" stroke-width="2"/>
<path d="M115.867 12.3719C113.63 12.5561 112.147 15.2376 111.744 19.8266C111.341 24.4155 112.052 30.5359 113.719 36.8414C115.386 43.1469 117.874 49.1209 120.634 53.4493C123.395 57.7777 126.203 60.1059 128.44 59.9216" stroke="black" stroke-width="2"/>
<path d="M32.6956 48.3345C30.703 48.7154 29.1024 50.3705 28.2459 52.9355C27.3895 55.5005 27.3474 58.7655 28.1289 62.0121C28.9104 65.2587 30.4515 68.221 32.4131 70.2473C34.3747 72.2736 36.5962 73.198 38.5889 72.8171" stroke="black" stroke-width="2"/>
<line y1="-1" x2="132.734" y2="-1" transform="matrix(-0.916486 0.400066 -0.355958 -0.934502 134.606 3.16089)" stroke="black" stroke-width="2"/>
<line y1="-1" x2="133.632" y2="-1" transform="matrix(-0.989878 0.141922 -0.124139 -0.992265 149.959 56.2634)" stroke="black" stroke-width="2"/>
<path d="M18.1561 75.5372C16.8521 75.8244 15.4055 75.0796 14.1343 73.4666C12.8632 71.8536 11.8717 69.5045 11.378 66.9361C10.8843 64.3676 10.9287 61.7903 11.5017 59.7711C12.0746 57.7518 13.129 56.456 14.4329 56.1688" stroke="black" stroke-width="2"/>
<path d="M6.44582 75.4088C5.38066 75.6434 4.23115 75.2026 3.25015 74.1834C2.26915 73.1641 1.53702 71.6499 1.21483 69.9738C0.892641 68.2978 1.00678 66.5971 1.53213 65.246C2.05748 63.8949 2.95102 63.0041 4.01617 62.7694" stroke="black" stroke-width="2"/>
<line y1="-1" x2="8.30216" y2="-1" transform="matrix(-0.924687 0.380728 -0.33812 -0.941103 11.1847 59.4243)" stroke="black" stroke-width="2"/>
<line y1="-1" x2="8.48217" y2="-1" transform="matrix(-0.974684 0.223589 -0.196277 -0.980549 14.1373 73.3321)" stroke="black" stroke-width="2"/>
<path d="M13.6395 43.5022C12.817 43.845 11.8406 43.73 10.9251 43.1825C10.0096 42.635 9.22992 41.6999 8.75769 40.5828C8.28546 39.4658 8.15931 38.2583 8.40699 37.2261C8.65467 36.1938 9.2559 35.4213 10.0784 35.0785" stroke="black" stroke-width="2"/>
<path d="M20.0217 40.3714C19.2007 40.7178 18.2235 40.6072 17.305 40.064C16.3864 39.5208 15.6019 38.5895 15.1238 37.4748C14.6458 36.3602 14.5135 35.1536 14.756 34.1205C14.9985 33.0874 15.5959 32.3124 16.4169 31.966" stroke="black" stroke-width="2"/>
<path d="M15.9462 32.5082C16.7874 32.2141 17.7509 32.3877 18.6246 32.9906C19.4983 33.5936 20.2107 34.5765 20.6051 35.7233C20.9995 36.87 21.0436 38.0866 20.7277 39.1054C20.4117 40.1242 19.7616 40.8618 18.9204 41.1558" stroke="black" stroke-width="2"/>
<line y1="-1" x2="7.94209" y2="-1" transform="matrix(-0.892255 0.451533 -0.403952 -0.91478 15.9089 31.6086)" stroke="black" stroke-width="2"/>
<line y1="-1" x2="6.92784" y2="-1" transform="matrix(-0.920123 0.39163 -0.397469 -0.917616 19.53 40.7599)" stroke="black" stroke-width="2"/>
<rect x="1.27901" y="0.515891" width="7.97076" height="12.6419" transform="matrix(-0.910414 0.413699 -0.368595 -0.92959 26.1293 52.0824)" stroke="black" stroke-width="2"/>
<line y1="-1" x2="91.6562" y2="-1" transform="matrix(-0.399459 0.916751 -0.894659 -0.446751 67.2851 79.6538)" stroke="black" stroke-width="2"/>
<line y1="-1" x2="9.44863" y2="-1" transform="matrix(-0.999984 -0.00562348 0.00490704 -0.999988 40.1207 163.733)" stroke="black" stroke-width="2"/>
<line y1="-1" x2="9.44863" y2="-1" transform="matrix(-0.999984 -0.00562348 0.00490704 -0.999988 129.881 163.786)" stroke="black" stroke-width="2"/>
<line y1="-1" x2="9.44863" y2="-1" transform="matrix(-0.999984 -0.00562348 0.00490704 -0.999988 83.8199 165.05)" stroke="black" stroke-width="2"/>
<line y1="-1" x2="88.6325" y2="-1" transform="matrix(-0.393099 0.919496 -0.898013 -0.439968 73.7809 82.1825)" stroke="black" stroke-width="2"/>
<line y1="-1" x2="90.4564" y2="-1" transform="matrix(-0.417814 -0.908532 0.88466 -0.466237 121.614 164.365)" stroke="black" stroke-width="2"/>
<line x1="74.5525" y1="164.997" x2="74.5525" y2="84.079" stroke="black" stroke-width="2"/>
<line x1="82.82" y1="164.997" x2="82.82" y2="82.8147" stroke="black" stroke-width="2"/>
<line y1="-1" x2="94.0015" y2="-1" transform="matrix(-0.433468 -0.901169 0.875758 -0.48275 130.472 164.365)" stroke="black" stroke-width="2"/>
<mask id="path-27-inside-1_54_252" fill="white">
<path d="M94.3827 64.3486C95.0533 68.9534 93.9654 73.6329 91.3584 77.3577C88.7514 81.0826 84.8388 83.5476 80.4814 84.2106C76.124 84.8735 71.6787 83.68 68.1233 80.8927C64.568 78.1054 62.194 73.9526 61.5234 69.3478L70.2718 68.0168C70.5853 70.1697 71.6952 72.1112 73.3574 73.4144C75.0196 74.7175 77.0979 75.2755 79.1351 74.9655C81.1723 74.6556 83.0015 73.5031 84.2204 71.7617C85.4392 70.0202 85.9478 67.8324 85.6343 65.6796L94.3827 64.3486Z"/>
</mask>
<path d="M94.3827 64.3486C95.0533 68.9534 93.9654 73.6329 91.3584 77.3577C88.7514 81.0826 84.8388 83.5476 80.4814 84.2106C76.124 84.8735 71.6787 83.68 68.1233 80.8927C64.568 78.1054 62.194 73.9526 61.5234 69.3478L70.2718 68.0168C70.5853 70.1697 71.6952 72.1112 73.3574 73.4144C75.0196 74.7175 77.0979 75.2755 79.1351 74.9655C81.1723 74.6556 83.0015 73.5031 84.2204 71.7617C85.4392 70.0202 85.9478 67.8324 85.6343 65.6796L94.3827 64.3486Z" stroke="black" stroke-width="4" mask="url(#path-27-inside-1_54_252)"/>
</svg>
