<svg width="985" height="511" viewBox="0 0 985 511" fill="none" xmlns="http://www.w3.org/2000/svg">
<path d="M587.499 211.968L604.5 475.5" stroke="black"/>
<line x1="887.491" y1="168.908" x2="941.491" y2="456.908" stroke="black"/>
<path d="M981 455C612.922 480 369.234 486.742 7 482.924" stroke="black"/>
<path d="M608 475L589 201" stroke="black"/>
<path d="M937 457.5L883 160.5M596.5 208.5C596.5 208.5 609.221 196.866 618.5 191C653.209 169.057 721 162.5 721 162.5M598.5 217.5C598.5 217.5 611.221 205.866 620.5 200" stroke="black"/>
<path d="M224.5 228L183 235.5L180 274.5" stroke="black"/>
<path d="M148.5 346L107 349.5L103 388.5M100 371.5L45.5 377" stroke="black"/>
<path d="M192.5 355.5L189 406.5M197.5 288L193.5 335M186 426L183 479" stroke="black"/>
<path d="M984 478C615.922 503 365.234 505.818 3 502" stroke="black"/>
<path d="M981 485C612.922 510 362.234 512.818 0 509" stroke="black"/>
<path d="M344 484L348.27 224.986L306.5 206M306.5 206L177 231.5L168.5 339M306.5 206L296.5 482.5M157.5 484L168.5 339M168.5 339L103 345L101.427 359M87 483L92.9438 434.5M101.427 359L40.5 364.5L23.5 483M101.427 359L99.6292 375M99.6292 375L96 375.368M99.6292 375L98.2499 387.276M40.5 381L35 425L37.5 424.916M40.5 381L43.5 380.696L96 375.368M40.5 381L89.9311 386.5M94.236 423L92.9438 434.5M94.236 423L90.118 423.139M94.236 423L98.2499 387.276M92.9438 434.5L90.118 434.634M26.5 483L32.5 438L84 435.018M35 438L28.5 483M43.5 381L37.5 424.916M37.5 424.916L86 423.278M91 376.5L86 423.278M86 423.278L90.118 423.139M90.118 423.139L94.236 375.547M96 375.368L95 387.276M92 423L95 387.276M84 435.018L79 483M84 435.018L88 434.734M88 434.734L82.5 483M88 434.734L90.118 434.634M90.118 434.634L84 483M95 387.276L98.2499 387.276M113.5 414L145 412L148.5 359.5L117.5 362.5L113.5 414Z" stroke="black"/>
<path d="M131 363.5L119.5 364.5L118 389.5L129.5 389L131 363.5Z" stroke="black"/>
<path d="M145.5 362.5L134 363.5L132 389L144 388.5L145.5 362.5Z" stroke="black"/>
<path d="M142.5 409.5L143.5 391L132 392L131 410L142.5 409.5Z" stroke="black"/>
<path d="M116.5 410.5L118 392.5L129 392L127.5 410L116.5 410.5Z" stroke="black"/>
<path d="M197.5 335L245.5 330.127M196.5 355L221.925 352.81M192.555 408L219.925 406.66M246.5 299L201.5 288L298 272L297.226 292.5M246.5 299L245.5 330.127M246.5 299L297.226 292.5M245.5 330.127L296 325L297.226 292.5M221.925 352.81L225 352.545M221.925 352.81L221 387L219.925 406.66M219.925 406.66L222.5 406.531M225 352.545L222.5 406.531M225 352.545L226.5 352.416L243 350.994M222.5 406.531L224 406.456L241 405.606M243 350.994L241 405.606M243 350.994L245.5 350.779M241 405.606L243 405.506M245.5 350.779L243 405.506M245.5 350.779L247 350.65L264.5 349.143M243 405.506L244.5 405.431L263.105 404.5M264.5 349.143L267 348.927M264.5 349.143L263.621 384L263.105 404.5M263.105 404.5L265.5 404.38M267 348.927L265.5 404.38M267 348.927L268.5 348.798L295.178 346.5L293.905 381M265.5 404.38L267 404.305L293.094 403L293.868 382L293.905 381M194 388L293.905 381M218 425.015L190 426.5L188.178 459M218 425.015L215.5 479.679M218 425.015L221 424.871M215.5 479.679L187 480L188.037 461.5M215.5 479.679L219 479.618M221 424.871L219 479.618M221 424.871L222.5 424.789L238 423.948M219 479.618L236 479.471M293.832 383L194 389.5M238 423.948L236 479.471M238 423.948L241 423.785M236 479.471L239 479.445M241 423.785L239 479.445M241 423.785L259.5 422.782M239 479.445L257.5 479.285M259.5 422.782L257.5 479.285M259.5 422.782L262 422.646M257.5 479.285L260.5 479.259M262 422.646L292.331 421L291.6 459M262 422.646L260.5 479.259M260.5 479.259L291.21 479.259L291.6 459M188.178 459L291.648 456.5M188.178 459L188.037 461.5M188.037 461.5L291.6 459" stroke="black"/>
<line x1="596.056" y1="304.497" x2="346.056" y2="332.497" stroke="black"/>
<path d="M396 349.578L561.049 333.496L562 392.5L364.5 408.5L366.049 352.496L396 349.578ZM396 349.578L395.25 405.842M377.5 482.499L378.25 422.999M379 351.234L378.25 407.499M492.5 340.176L492.5 397.999M424.5 346.801L423.75 403.5M398.5 349.334L397.75 405.599M427.5 346.509L426.5 403.5M427.5 419.5L427.5 481.499M525.5 336.96L525.5 395.5M529 336.619L529 395M496 339.835L496 397.658M397.75 482.499L397.75 420.81L565 408.646M395.25 420.975L395.25 482.499M492.5 414.5L492.5 479.5M496 414.5L496 479.5M423.75 420L423.75 481.5M525.5 412L525.5 478.5M529 412L529 478.5M363 482.499L364.5 422.999L565 408.646M565 408.646L568 478.5" stroke="black"/>
<line x1="455.5" y1="344" x2="455.5" y2="401" stroke="black"/>
<line x1="463.5" y1="343" x2="463.5" y2="400" stroke="black"/>
<line x1="461.5" y1="343" x2="461.5" y2="400" stroke="black"/>
<line x1="455.5" y1="417" x2="455.5" y2="481" stroke="black"/>
<line x1="463.5" y1="417" x2="463.5" y2="480" stroke="black"/>
<line x1="461.5" y1="417" x2="461.5" y2="480" stroke="black"/>
<line x1="201.498" y1="288.042" x2="197.498" y2="335.042" stroke="black"/>
<line x1="196.499" y1="355.038" x2="192.499" y2="408.038" stroke="black"/>
<path d="M876.5 127C874.128 110.368 867.242 88.9923 857.42 74.7588C847.597 60.5252 834.433 48.2484 818.706 38.6527C802.978 29.057 785.006 22.337 765.848 18.8893C765.848 18.8893 756.223 17.3453 750 16.9999C744.541 16.6969 743.5 17 743.5 17M666 31C649.138 38.0141 620.307 59.3224 608.726 73.4427C597.144 87.563 588.893 103.388 584.46 119.983C580.027 136.579 579.501 153.609 582.914 170.068" stroke="black"/>
<path d="M895 152C893.874 143.86 888.82 135.242 879.494 128.888C870.168 122.535 857.09 117.425 841.031 113.859C824.973 110.293 806.259 108.343 785.996 108.125C765.732 107.907 744.329 109.425 723.049 112.59C701.769 115.754 681.043 120.501 662.095 126.55C643.148 132.599 626.362 139.828 612.728 147.809C599.095 155.791 588.89 164.364 582.716 173.022C576.542 181.68 574.524 190.248 576.782 198.22" stroke="black"/>
<path d="M902.69 166.554C901.638 158.947 896.219 152.022 886.753 146.189C877.288 140.356 863.968 135.732 847.579 132.59C831.19 129.449 812.064 127.853 791.331 127.898C770.598 127.943 748.677 129.627 726.862 132.851C705.048 136.075 683.781 140.774 664.317 146.67C644.854 152.566 627.588 159.54 613.539 167.18C599.49 174.82 588.942 182.971 582.518 191.153C576.094 199.334 573.325 206.831 575.537 214.267L579.023 219.666L582.442 223.099L585.506 226.042L589 228" stroke="black"/>
<path d="M887.51 168.978C886.657 162.812 881.793 157.265 873.207 152.663C864.62 148.061 852.483 144.499 837.514 142.186C822.545 139.872 805.046 138.856 786.05 139.195C767.053 139.534 746.945 141.223 726.912 144.162C706.878 147.1 687.325 151.229 669.407 156.305C651.488 161.38 635.568 167.299 622.584 173.712C609.601 180.126 599.818 186.903 593.813 193.645C587.808 200.387 585.702 206.957 587.62 212.967" stroke="black"/>
<path d="M891 187C891 187 894.557 185.862 896.475 184.5C902.906 179.933 902.5 165 902.5 165" stroke="black"/>
<path d="M647.603 131.5C639.034 91.1488 648 56 669 26.5L739.5 8.5" stroke="black"/>
<path d="M743.5 17.0014C736.342 46.4422 734.164 80.3859 737.5 110.5L728.957 112.001C724.085 72.3907 731.69 8.5701 741 8.5C741 8.5 744.685 8.49295 746.5 10C748.923 12.0115 750.5 17.0014 750.5 17.0014" stroke="black"/>
<path d="M346.5 338.5L449 328" stroke="black"/>
<path d="M335.5 482.5L342.5 239" stroke="black"/>
</svg>
